<?xml version="1.0" standalone="no"?>
<!DOCTYPE svg PUBLIC "-//W3C//DTD SVG 20010904//EN"
 "http://www.w3.org/TR/2001/REC-SVG-20010904/DTD/svg10.dtd">
<svg version="1.0" xmlns="http://www.w3.org/2000/svg"
 width="361.000000pt" height="209.000000pt" viewBox="0 0 361.000000 209.000000"
 preserveAspectRatio="xMidYMid meet">

<g transform="translate(0.000000,209.000000) scale(0.100000,-0.100000)"
fill="#000000" stroke="none">
<path d="M2410 1729 l0 -142 41 -64 c106 -169 155 -389 130 -591 -13 -104 -58
-254 -95 -320 l-25 -42 71 -78 c39 -42 77 -83 84 -91 11 -12 25 -3 93 53 l81
68 0 674 0 674 -190 0 -190 0 0 -141z"/>
<path d="M1956 1803 c-3 -4 -6 -61 -6 -127 l0 -121 53 -28 c112 -58 215 -185
258 -319 31 -96 31 -232 1 -327 -24 -75 -31 -61 86 -186 l71 -76 35 74 c59
121 79 229 73 382 -3 96 -11 148 -27 200 -77 243 -260 438 -486 515 -29 10
-55 16 -58 13z"/>
<path d="M1950 841 l0 -180 41 -47 40 -47 -30 -15 c-17 -8 -31 -19 -31 -24 0
-6 -6 -8 -12 -5 -10 3 -12 -24 -10 -120 l3 -125 37 7 c20 4 77 27 125 52 l88
45 73 -78 c40 -44 87 -96 105 -116 l32 -36 -81 -59 -80 -58 262 -3 c145 -1
268 0 273 2 7 2 16 76 24 187 6 101 15 204 18 228 l6 45 -103 -89 -103 -89
-46 51 c-198 219 -612 653 -623 653 -4 0 -8 -81 -8 -179z"/>
<path d="M2866 394 c-3 -43 -9 -109 -12 -146 l-6 -68 351 0 351 0 0 140 0 140
-32 0 c-18 0 -171 3 -339 7 l-306 6 -7 -79z"/>
</g>
</svg>
