<?xml version="1.0" encoding="iso-8859-1"?>
<!-- Uploaded to: SVG Repo, www.svgrepo.com, Generator: SVG Repo Mixer Tools -->
<svg fill="#000000" height="800px" width="800px" version="1.1" id="Layer_1" xmlns="http://www.w3.org/2000/svg" xmlns:xlink="http://www.w3.org/1999/xlink" 
	 viewBox="0 0 512 512" xml:space="preserve">
<g>
	<g>
		<path d="M430.435,212.5H167.182c4.547-18.529,6.328-36.447,5.058-52.071c-2.166-26.665-13.091-45.558-30.76-53.198
			c-35.878-15.512-84.3,22.235-112.646,87.791c-0.744,1.717-1.455,3.463-2.163,5.209c-4.238,1.611-8.194,3.894-11.692,6.822
			C5.459,215.018,0,227.115,0,240.239v76.562c-0.002,9.555,2.803,18.352,7.911,25.48c-0.488,2.024-0.837,4.086-1.01,6.177
			c-1.027,12.387,3.691,24.798,12.945,34.055l57.272,57.271c8.437,8.438,19.323,13.084,30.651,13.084
			c3.095,0,6.133-0.36,9.084-1.024c7.627,6.837,17.849,10.786,28.971,10.786h76.567h164.543c7.776,0,14.472-5.489,15.997-13.114
			l14.777-73.887h12.727c44.975,0,81.565-36.59,81.565-81.565C512,249.088,475.411,212.5,430.435,212.5z M128.532,137.176
			c10.869,4.699,16.784,34.961,4.737,75.832l-70.983-12.703C84.616,153.648,115.753,131.657,128.532,137.176z M32.626,240.239
			c0-3.49,1.169-6.39,3.291-8.167c2.121-1.775,5.181-2.415,8.617-1.799l81.762,14.632L32.626,311.76V240.239z M116.065,415.392
			c-2.232,3.126-5.178,4.847-8.298,4.847c-2.651,0-5.273-1.22-7.581-3.528l-57.269-57.266c-2.495-2.495-3.739-5.439-3.502-8.289
			c0.236-2.848,1.947-5.546,4.816-7.594l109.604-78.23c3.166-2.259,7.383-3.504,11.877-3.504c5.896,0,11.563,2.149,15.161,5.747
			l11.178,11.178c3.893,3.893,5.862,9.794,5.76,15.567c-0.009,0.219-0.022,0.437-0.022,0.656c-0.178,3.928-1.313,7.762-3.493,10.816
			L116.065,415.392z M230.558,426.712c-1.777,2.124-4.677,3.292-8.167,3.292h-76.567c-0.033,0-0.063-0.004-0.096-0.004
			l70.965-99.425l15.666,87.522C232.973,421.53,232.335,424.59,230.558,426.712z M249.621,329.365
			c40.869-12.049,71.132-6.133,75.833,4.736c5.518,12.762-16.47,43.912-63.128,66.244L249.621,329.365z M388.368,355.971
			c-0.009,0.042-0.017,0.084-0.025,0.125l-14.782,73.908h-97.604c60.373-28.725,94.284-74.533,79.446-108.854
			c-7.642-17.668-26.534-28.592-53.198-30.759c-18.539-1.507-40.299,1.283-62.482,7.891c-2.685-4.145-5.934-8.001-9.683-11.437
			c-1.449-11.589-6.483-22.727-14.916-31.161l-10.559-10.559h205.973L388.368,355.971z M430.435,343.003h-6.202l19.223-96.104
			c20.683,5.716,35.918,24.688,35.918,47.165C479.374,321.048,457.422,343.003,430.435,343.003z"/>
	</g>
</g>
<g>
	<g>
		<path d="M267.963,119.399c-7.998-7.998-11.534-11.92-11.533-21.091c-0.001-9.17,3.536-13.093,11.536-21.089
			c6.372-6.37,6.374-16.698,0.004-23.07s-16.697-6.373-23.069-0.003c-8.905,8.901-21.098,21.091-21.096,44.163
			c-0.002,23.07,12.189,35.26,21.091,44.162c7.998,7.998,11.534,11.92,11.534,21.091c0,9.009,7.304,16.313,16.312,16.313
			c9.01,0,16.313-7.304,16.313-16.313C289.055,140.49,276.865,128.3,267.963,119.399z"/>
	</g>
</g>
<g>
	<g>
		<path d="M354.965,119.399c-7.997-7.998-11.533-11.92-11.533-21.091s3.537-13.093,11.537-21.089
			c6.372-6.37,6.374-16.698,0.004-23.07c-6.371-6.372-16.698-6.373-23.07-0.003c-8.905,8.901-21.096,21.091-21.096,44.163
			c-0.002,23.07,12.19,35.26,21.091,44.162c7.999,7.998,11.534,11.92,11.534,21.091c0,9.009,7.305,16.313,16.313,16.313
			c9.01,0,16.313-7.304,16.313-16.313C376.058,140.49,363.868,128.3,354.965,119.399z"/>
	</g>
</g>
</svg>