<?xml version="1.0" encoding="iso-8859-1"?>
<!-- Uploaded to: SVG Repo, www.svgrepo.com, Generator: SVG Repo Mixer Tools -->
<svg fill="#000000" version="1.1" id="Layer_1" xmlns="http://www.w3.org/2000/svg" xmlns:xlink="http://www.w3.org/1999/xlink" 
	 viewBox="0 0 511.999 511.999" xml:space="preserve">
<g>
	<g>
		<path d="M354.626,197.717c-86.776,0-157.374,70.483-157.374,157.12c0,25.021,6.039,49.919,17.465,72.006l13.904-7.194
			c-10.427-20.156-15.713-41.961-15.713-64.812c0-78.004,63.576-141.465,141.719-141.465s141.719,63.461,141.719,141.465
			S432.77,496.302,354.626,496.302c-44.647,0-85.781-20.369-112.855-55.885l-12.451,9.491
			c30.06,39.433,75.732,62.049,125.305,62.049c86.777,0,157.374-70.483,157.374-157.12S441.403,197.717,354.626,197.717z"/>
	</g>
</g>
<g>
	<g>
		<path d="M284.765,301.241c-27.188,0-49.308,22.087-49.308,49.237c-0.001,27.15,22.119,49.238,49.308,49.238
			s49.308-22.088,49.308-49.238S311.954,301.241,284.765,301.241z M284.765,384.062c-18.556,0-33.653-15.065-33.653-33.583
			c-0.001-18.518,15.095-33.582,33.653-33.582c18.556,0,33.653,15.065,33.653,33.582
			C318.418,368.996,303.322,384.062,284.765,384.062z"/>
	</g>
</g>
<g>
	<g>
		<path d="M361.175,400.406c-14.548,0-26.384,11.822-26.384,26.352c0,14.531,11.836,26.352,26.384,26.352
			c14.549,0,26.385-11.822,26.385-26.352C387.559,412.228,375.723,400.406,361.175,400.406z M361.176,437.456
			c-5.917,0-10.729-4.799-10.729-10.698c0-5.899,4.812-10.698,10.729-10.698c5.915,0,10.73,4.799,10.73,10.698
			C371.906,432.658,367.092,437.456,361.176,437.456z"/>
	</g>
</g>
<g>
	<g>
		<path d="M404.838,258.742c-20.567,0-37.299,16.71-37.299,37.249c0,20.54,16.732,37.25,37.299,37.25
			c20.567,0,37.3-16.71,37.3-37.25S425.406,258.742,404.838,258.742z M404.838,317.587c-11.934,0.001-21.644-9.686-21.644-21.595
			c0-11.907,9.71-21.594,21.644-21.594c11.936,0,21.645,9.687,21.645,21.594C426.484,307.9,416.773,317.587,404.838,317.587z"/>
	</g>
</g>
<g>
	<g>
		<path d="M296.424,83.514l-13.818,7.357c10.081,18.936,15.721,40.195,16.415,61.757c-8.28,4.58-22.703,12.101-30.138,14.072
			c-4.09,1.085-9.327,0.778-14.872,0.455c-8.436-0.496-17.999-1.053-26.091,3.593c-8.228,4.723-12.557,13.314-16.376,20.893
			c-2.455,4.869-4.773,9.468-7.667,12.339c-2.899,2.876-7.534,5.173-12.441,7.605c-1.834,0.909-3.726,1.848-5.609,2.863
			c-0.954-1.422-2.034-2.768-3.268-4.001c-10.286-10.286-27.015-10.298-37.291-0.021c-10.275,10.276-10.264,27.005,0.022,37.291
			c5.114,5.113,11.875,7.743,18.679,7.743c0.945,0,1.89-0.069,2.833-0.171c0.276,4.963,0.436,9.611-0.557,13.297
			c-1.995,7.41-9.128,21.68-13.506,29.964C76.73,296.103,15.655,233.618,15.655,157.162c0-78.004,63.576-141.465,141.719-141.465
			c44.894,0,86.165,20.549,113.231,56.379l12.492-9.436c-14.364-19.015-33.161-34.767-54.361-45.552
			C206.503,5.777,182.494,0.042,157.374,0.042C70.598,0.042,0,70.526,0,157.162s70.598,157.12,157.374,157.12H162l2.231-4.052
			c0.56-1.016,13.756-25.048,17.131-37.57c1.746-6.485,1.361-13.207,0.988-19.709c-0.39-6.81-0.759-13.242,1.574-17.241
			c2.403-4.119,8.261-7.024,14.463-10.097c5.808-2.878,11.814-5.855,16.515-10.518c4.702-4.664,7.711-10.634,10.62-16.407
			c3.104-6.159,6.036-11.976,10.19-14.361c4.047-2.324,10.524-1.943,17.385-1.545c6.534,0.383,13.287,0.776,19.797-0.95
			c12.465-3.304,35.369-16.409,37.94-17.891l3.915-2.26v-4.52C314.75,131.498,308.414,106.032,296.424,83.514z M170.401,227.824
			c-2.129,3.65-3.177,7.598-3.65,11.607c-3.617,0.98-7.603,0.006-10.392-2.782c-4.184-4.183-4.194-10.98-0.022-15.152
			c2.016-2.017,4.699-3.127,7.554-3.127c0.003,0,0.006,0,0.009,0c2.865,0.002,5.559,1.121,7.587,3.15
			c0.703,0.702,1.291,1.49,1.768,2.338C172.205,225.073,171.24,226.386,170.401,227.824z"/>
	</g>
</g>
<g>
	<g>
		<path d="M87.514,103.751c-27.047,0-49.052,22.005-49.052,49.052c0,27.047,22.005,49.052,49.052,49.052
			c27.047,0,49.052-22.004,49.052-49.052C136.566,125.755,114.561,103.751,87.514,103.751z M87.514,186.2
			c-18.415,0-33.397-14.982-33.397-33.397c0-18.415,14.982-33.397,33.397-33.397c18.415,0,33.397,14.983,33.397,33.397
			C120.911,171.218,105.929,186.2,87.514,186.2z"/>
	</g>
</g>
<g>
	<g>
		<path d="M207.587,61.067c-20.567,0-37.299,16.709-37.299,37.249c0,20.54,16.732,37.25,37.299,37.25s37.3-16.711,37.3-37.25
			S228.154,61.067,207.587,61.067z M207.587,119.912c-11.935,0-21.644-9.687-21.644-21.595c0-11.907,9.71-21.594,21.644-21.594
			c11.936,0,21.645,9.687,21.645,21.594C229.232,110.224,219.522,119.912,207.587,119.912z"/>
	</g>
</g>
<g>
	<g>
		<rect x="321.008" y="138.984" width="11.864" height="11.864"/>
	</g>
</g>
<g>
	<g>
		
			<rect x="291.116" y="187.673" transform="matrix(0.7071 -0.7071 0.7071 0.7071 -49.8969 266.7494)" width="11.864" height="11.865"/>
	</g>
</g>
<g>
	<g>
		
			<rect x="220.145" y="224.277" transform="matrix(0.7071 -0.7071 0.7071 0.7071 -96.5659 227.2876)" width="11.865" height="11.865"/>
	</g>
</g>
<g>
	<g>
		<rect x="342.925" y="171.723" width="11.864" height="11.864"/>
	</g>
</g>
<g>
	<g>
		
			<rect x="99.011" y="317.374" transform="matrix(0.7071 -0.7071 0.7071 0.7071 -197.8743 168.8995)" width="11.865" height="11.865"/>
	</g>
</g>
<g>
	<g>
		<rect x="202.689" y="261.092" width="11.864" height="11.864"/>
	</g>
</g>
<g>
	<g>
		<rect x="143.2" y="358.653" width="11.864" height="11.864"/>
	</g>
</g>
<g>
	<g>
		
			<rect x="138.174" y="328.008" transform="matrix(0.7071 -0.7071 0.7071 0.7071 -193.9231 199.7066)" width="11.865" height="11.865"/>
	</g>
</g>
<g>
	<g>
		
			<rect x="177.32" y="312.908" transform="matrix(0.7071 -0.7071 0.7071 0.7071 -171.7805 222.9664)" width="11.865" height="11.864"/>
	</g>
</g>
</svg>